<?xml version="1.0" encoding="utf-8"?>
<!-- Generator: Adobe Illustrator 21.0.2, SVG Export Plug-In . SVG Version: 6.00 Build 0)  -->
<svg version="1.1" id="Layer_1" xmlns="http://www.w3.org/2000/svg" xmlns:xlink="http://www.w3.org/1999/xlink" x="0px" y="0px"
	 viewBox="0 0 200 83.6" style="enable-background:new 0 0 200 83.6;" xml:space="preserve">
<style type="text/css">
	.st0{fill:#897F24;}
	.st1{fill:#FFFFFF;}
</style>
<path class="st0" d="M89.9,14.2l-7.6-7.6v17.3c0,8.1,6.6,14.7,14.7,14.7h0.7c8.1,0,14.7-6.6,14.7-14.7V6.6l-7.5,7.5l-7.5-10
	L89.9,14.2z"/>
<path class="st1" d="M92,11.2l-7.6-7.6V21c0,8.1,6.6,14.7,14.7,14.7h0.7c8.1,0,14.7-6.6,14.7-14.7V3.6l-7.5,7.5l-7.5-10L92,11.2z"/>
<g>
	<path class="st0" d="M-0.5,56.3h19.8v3.9h-7.8v20.1H7.3V60.3h-7.8V56.3z"/>
	<path class="st0" d="M45.2,70.4c0,7.3-4.5,10.3-9.5,10.3c-6,0-10.2-3.5-10.2-10.6V56.3h4.2v12.9c0,4.5,1.9,7.5,6,7.5
		c3.6,0,5.3-2.6,5.3-7.2V56.3h4.2V70.4z"/>
	<path class="st0" d="M54.4,56.3h4.2v20.1h10.8v3.9h-15V56.3z"/>
	<path class="st0" d="M76.6,56.3h4.2v24h-4.2V56.3z"/>
	<path class="st0" d="M90.9,80.3v-24c1.3,0,5.1-0.1,6.8-0.1c7.1,0,9.3,3.8,9.3,7.7c0,4.1-3.1,7.8-8.8,7.8c-0.7,0-2.1,0-3.1-0.1v8.7
		H90.9z M95.1,60.3v7.4c1,0.1,2,0.2,3,0.2c2.5,0,4.5-1.2,4.5-3.9c0-2.5-1.5-3.7-4.4-3.7C97.2,60.2,96.2,60.2,95.1,60.3z"/>
	<path class="st0" d="M124.9,56.4c1.3-0.1,4.5-0.2,6.9-0.2c5.7,0,7.9,2.6,7.9,5.9c0,2.7-1.4,4.5-3.4,5.5v0.1
		c2.4,0.6,4.2,2.4,4.2,5.6c0,4.9-3.8,7.2-8.9,7.2c-2.2,0-5.3-0.1-6.7-0.2V56.4z M129.1,60.3v6.1h2.8c2,0,3.6-1,3.6-3.2
		c0-2-1.5-3-3.8-3C130.8,60.2,129.9,60.2,129.1,60.3z M129.1,70v6.3c0.6,0.1,1.6,0.2,2.8,0.2c2.8,0,4.4-1.2,4.4-3.5
		c0-2-1.5-3.1-4.2-3.1H129.1z"/>
	<path class="st0" d="M156,56.3h3.7l10.1,24.1h-4.5l-2.5-6.1h-10.3l-2.5,6.1h-4.3L156,56.3z M154.2,70.3h7l-3.5-8.5L154.2,70.3z"/>
	<path class="st0" d="M176.3,80.3v-24c1.3,0,6.6-0.1,7.3-0.1c6.5,0,8.7,3.3,8.7,7.4c0,4.1-2.6,6.2-4.6,6.9l7.5,9.8h-5.1l-6.6-9h-2.9
		v9H176.3z M180.5,60.3v7.1h2.7c2.4,0,4.6-1.2,4.6-3.7c0-1.9-1-3.5-4.5-3.5C182.6,60.2,181.7,60.2,180.5,60.3z"/>
</g>
<g>
	<path class="st1" d="M2.2,54H22v3.9h-7.8V78H10V57.9H2.2V54z"/>
	<path class="st1" d="M47.9,68c0,7.3-4.5,10.3-9.5,10.3c-6,0-10.2-3.5-10.2-10.6V54h4.2v12.9c0,4.5,1.9,7.5,6,7.5
		c3.6,0,5.3-2.6,5.3-7.2V54h4.2V68z"/>
	<path class="st1" d="M57.1,54h4.2V74h10.8V78h-15V54z"/>
	<path class="st1" d="M79.3,54h4.2v24h-4.2V54z"/>
	<path class="st1" d="M93.6,78V54c1.3,0,5.1-0.1,6.8-0.1c7.1,0,9.3,3.8,9.3,7.7c0,4.1-3.1,7.8-8.8,7.8c-0.7,0-2.1,0-3.1-0.1V78H93.6
		z M97.8,57.9v7.4c1,0.1,2,0.2,3,0.2c2.5,0,4.5-1.2,4.5-3.9c0-2.5-1.5-3.7-4.4-3.7C99.9,57.8,98.9,57.9,97.8,57.9z"/>
	<path class="st1" d="M127.6,54c1.3-0.1,4.5-0.2,6.9-0.2c5.7,0,7.9,2.6,7.9,5.9c0,2.7-1.4,4.5-3.4,5.5v0.1c2.4,0.6,4.2,2.4,4.2,5.6
		c0,4.9-3.8,7.2-8.9,7.2c-2.2,0-5.3-0.1-6.7-0.2V54z M131.8,57.9V64h2.8c2,0,3.6-1,3.6-3.2c0-2-1.5-3-3.8-3
		C133.5,57.8,132.5,57.8,131.8,57.9z M131.8,67.7V74c0.6,0.1,1.6,0.2,2.8,0.2c2.8,0,4.4-1.2,4.4-3.5c0-2-1.5-3.1-4.2-3.1H131.8z"/>
	<path class="st1" d="M158.7,53.9h3.7L172.5,78H168l-2.5-6.1h-10.3l-2.5,6.1h-4.3L158.7,53.9z M156.9,67.9h7l-3.5-8.5L156.9,67.9z"
		/>
	<path class="st1" d="M179,78V54c1.3,0,6.6-0.1,7.3-0.1c6.5,0,8.7,3.3,8.7,7.4c0,4.1-2.6,6.2-4.6,6.9l7.5,9.8h-5.1l-6.6-9h-2.9v9
		H179z M183.2,57.9V65h2.7c2.4,0,4.6-1.2,4.6-3.7c0-1.9-1-3.5-4.5-3.5C185.3,57.8,184.4,57.9,183.2,57.9z"/>
</g>
</svg>
